<svg xmlns="http://www.w3.org/2000/svg" viewBox="0 0 64 64" width="200" height="200">
  <defs>
    <linearGradient id="g" x1="0" x2="1" y1="0" y2="1">
      <stop offset="0" stop-color="#4facfe"/>
      <stop offset="1" stop-color="#00f2fe"/>
    </linearGradient>
  </defs>
  <circle cx="32" cy="32" r="30" fill="url(#g)" />
  <path fill="#fff" d="M20 36c2-4 6-6 12-6s10 2 12 6c0 0-2 4-6 4s-8-2-12-2-8 2-8 2-4-2-4-4z" opacity="0.95"/>
  <path fill="#fff" d="M28 20c2-1 4-1 6 0 3 1 4 3 4 5 0 0-3-1-6-1s-6 1-6 1c0-2 0-5 2-5z" opacity="0.95"/>
</svg>
